<svg xmlns="http://www.w3.org/2000/svg" width="900" height="254" viewBox="0 0 900 254" class="sc-root" role="img" aria-labelledby="sc-sparkline-title sc-sparkline-desc"><title id="sc-sparkline-title">elenigvasilaki/ImportRegex + 2 more repositories</title><desc id="sc-sparkline-desc">Star history for elenigvasilaki/ImportRegex + 2 more repositories over all time. 14 current stars. 13 recorded additions in range. 2022-07-15 to 2026-09-29. Scale: absolute. Display intervals subdivide nominal API weeks; the final week may still be partial.</desc><style>.sc-root{font-family:-apple-system, BlinkMacSystemFont, "Segoe UI", sans-serif;}.sc-t{fill:var(--sc-text);}.sc-m{fill:var(--sc-muted);}.sc-a{fill:var(--sc-accent);}.sc-empty{fill:var(--sc-empty);}.sc-l1{fill:var(--sc-l1);}.sc-l2{fill:var(--sc-l2);}.sc-l3{fill:var(--sc-l3);}.sc-l4{fill:var(--sc-l4);}.sc-stroke{fill:none;stroke:var(--sc-stroke);}.sc-area{fill:var(--sc-fill);}.sc-bar{fill:var(--sc-stroke);}.sc-axis{stroke:var(--sc-axis);}.sc-dot{fill:var(--sc-stroke);}:root{--sc-empty:#2a2238;--sc-l1:#463766;--sc-l2:#6a56a5;--sc-l3:#9278d8;--sc-l4:#c5a6ff;--sc-text:#e6edf3;--sc-muted:#9198a1;--sc-border:#3d444d;--sc-accent:#e3b341;--sc-stroke:#3fb950;--sc-fill:#3fb950;--sc-axis:#3d444d;}</style><g class="sc-header"><text x="16" y="26" class="sc-t sc-title" font-size="14" textLength="416.64" lengthAdjust="spacingAndGlyphs" font-weight="600">elenigvasilaki/ImportRegex + 2 more repositories</text><text x="16" y="42" class="sc-m" font-size="11" textLength="54.56" lengthAdjust="spacingAndGlyphs">all time</text><text x="849.82" y="26" class="sc-t sc-total" font-size="13" textLength="32.24" lengthAdjust="spacingAndGlyphs" text-anchor="end"><tspan class="sc-a">★</tspan> 14</text><text x="884" y="26" class="sc-m sc-change" font-size="13" textLength="24.18" lengthAdjust="spacingAndGlyphs" text-anchor="end">+13</text></g><g class="sc-x-axis"><line class="sc-axis" x1="16" x2="884" y1="214" y2="214"/></g><g aria-hidden="true"><path d="M32.692,139.231C38.256,139.231,43.821,139.231,49.385,139.231C54.949,139.231,60.513,139.231,66.077,139.231C71.641,139.231,77.205,126.769,82.769,126.769C88.333,126.769,93.897,126.769,99.462,126.769C105.026,126.769,110.59,114.308,116.154,114.308C121.718,114.308,127.282,114.308,132.846,114.308C138.41,114.308,143.974,114.308,149.538,114.308C155.103,114.308,160.667,114.308,166.231,114.308C171.795,114.308,177.359,114.308,182.923,114.308C188.487,114.308,194.051,114.308,199.615,114.308C205.179,114.308,210.744,114.308,216.308,114.308C221.872,114.308,227.436,114.308,233,114.308C238.564,114.308,244.128,101.846,249.692,101.846C255.256,101.846,260.821,101.846,266.385,101.846C271.949,101.846,277.513,101.846,283.077,101.846C288.641,101.846,294.205,101.846,299.769,101.846C305.333,101.846,310.897,101.846,316.462,101.846C322.026,101.846,327.59,101.846,333.154,101.846C338.718,101.846,344.282,101.846,349.846,101.846C355.41,101.846,360.974,101.846,366.538,101.846C372.103,101.846,377.667,101.846,383.231,101.846C388.795,101.846,394.359,101.846,399.923,101.846C405.487,101.846,411.051,101.846,416.615,101.846C422.179,101.846,427.744,101.846,433.308,101.846C438.872,101.846,444.436,93.538,450,89.385C455.564,85.231,461.128,76.923,466.692,76.923C472.256,76.923,477.821,76.923,483.385,76.923C488.949,76.923,494.513,76.923,500.077,76.923C505.641,76.923,511.205,76.923,516.769,76.923C522.333,76.923,527.897,76.923,533.462,76.923C539.026,76.923,544.59,76.923,550.154,76.923C555.718,76.923,561.282,76.923,566.846,76.923C572.41,76.923,577.974,64.462,583.538,64.462C589.103,64.462,594.667,64.462,600.231,64.462C605.795,64.462,611.359,64.462,616.923,64.462C622.487,64.462,628.051,64.462,633.615,64.462C639.179,64.462,644.744,64.462,650.308,64.462C655.872,64.462,661.436,64.462,667,64.462C672.564,64.462,678.128,64.462,683.692,64.462C689.256,64.462,694.821,64.462,700.385,64.462C705.949,64.462,711.513,64.462,717.077,64.462C722.641,64.462,728.205,64.462,733.769,64.462C739.333,64.462,744.897,64.462,750.462,64.462C756.026,64.462,761.59,64.462,767.154,64.462C772.718,64.462,778.282,64.462,783.846,64.462C789.41,64.462,794.974,64.462,800.538,64.462C806.103,64.462,811.667,52,817.231,52C822.795,52,828.359,52,833.923,52C839.487,52,845.051,52,850.615,52C856.179,52,861.744,52,867.308,52C872.872,52,878.436,52,884,52" class="sc-stroke" stroke-width="1.75" stroke-linecap="round" stroke-linejoin="round"/></g><circle cx="32.692" cy="139.231" r="6" fill="transparent"><title>Jul 2022–Aug 2022: 6 recorded stars at bucket end (+6; current week may be partial)</title></circle><circle cx="49.385" cy="139.231" r="6" fill="transparent"><title>Aug 2022–Sep 2022: 6 recorded stars at bucket end (+0; current week may be partial)</title></circle><circle cx="66.077" cy="139.231" r="6" fill="transparent"><title>Sep 2022–Oct 2022: 6 recorded stars at bucket end (+0; current week may be partial)</title></circle><circle cx="82.769" cy="126.769" r="6" fill="transparent"><title>Oct 2022–Nov 2022: 7 recorded stars at bucket end (+1; current week may be partial)</title></circle><circle cx="99.462" cy="126.769" r="6" fill="transparent"><title>Nov 2022–Dec 2022: 7 recorded stars at bucket end (+0; current week may be partial)</title></circle><circle cx="116.154" cy="114.308" r="6" fill="transparent"><title>Dec 2022–Jan 2023: 8 recorded stars at bucket end (+1; current week may be partial)</title></circle><circle cx="132.846" cy="114.308" r="6" fill="transparent"><title>Jan 2023–Feb 2023: 8 recorded stars at bucket end (+0; current week may be partial)</title></circle><circle cx="149.538" cy="114.308" r="6" fill="transparent"><title>Feb 2023–Mar 2023: 8 recorded stars at bucket end (+0; current week may be partial)</title></circle><circle cx="166.231" cy="114.308" r="6" fill="transparent"><title>Mar 2023–Apr 2023: 8 recorded stars at bucket end (+0; current week may be partial)</title></circle><circle cx="182.923" cy="114.308" r="6" fill="transparent"><title>Apr 2023–May 2023: 8 recorded stars at bucket end (+0; current week may be partial)</title></circle><circle cx="199.615" cy="114.308" r="6" fill="transparent"><title>May 2023–Jun 2023: 8 recorded stars at bucket end (+0; current week may be partial)</title></circle><circle cx="216.308" cy="114.308" r="6" fill="transparent"><title>Jun 2023–Jul 2023: 8 recorded stars at bucket end (+0; current week may be partial)</title></circle><circle cx="233" cy="114.308" r="6" fill="transparent"><title>Jul 2023–Aug 2023: 8 recorded stars at bucket end (+0; current week may be partial)</title></circle><circle cx="249.692" cy="101.846" r="6" fill="transparent"><title>Aug 2023–Sep 2023: 9 recorded stars at bucket end (+1; current week may be partial)</title></circle><circle cx="266.385" cy="101.846" r="6" fill="transparent"><title>Sep 2023–Oct 2023: 9 recorded stars at bucket end (+0; current week may be partial)</title></circle><circle cx="283.077" cy="101.846" r="6" fill="transparent"><title>Oct 2023–Oct 2023: 9 recorded stars at bucket end (+0; current week may be partial)</title></circle><circle cx="299.769" cy="101.846" r="6" fill="transparent"><title>Oct 2023–Nov 2023: 9 recorded stars at bucket end (+0; current week may be partial)</title></circle><circle cx="316.462" cy="101.846" r="6" fill="transparent"><title>Nov 2023–Dec 2023: 9 recorded stars at bucket end (+0; current week may be partial)</title></circle><circle cx="333.154" cy="101.846" r="6" fill="transparent"><title>Dec 2023–Jan 2024: 9 recorded stars at bucket end (+0; current week may be partial)</title></circle><circle cx="349.846" cy="101.846" r="6" fill="transparent"><title>Jan 2024–Feb 2024: 9 recorded stars at bucket end (+0; current week may be partial)</title></circle><circle cx="366.538" cy="101.846" r="6" fill="transparent"><title>Feb 2024–Mar 2024: 9 recorded stars at bucket end (+0; current week may be partial)</title></circle><circle cx="383.231" cy="101.846" r="6" fill="transparent"><title>Mar 2024–Apr 2024: 9 recorded stars at bucket end (+0; current week may be partial)</title></circle><circle cx="399.923" cy="101.846" r="6" fill="transparent"><title>Apr 2024–May 2024: 9 recorded stars at bucket end (+0; current week may be partial)</title></circle><circle cx="416.615" cy="101.846" r="6" fill="transparent"><title>May 2024–Jun 2024: 9 recorded stars at bucket end (+0; current week may be partial)</title></circle><circle cx="433.308" cy="101.846" r="6" fill="transparent"><title>Jun 2024–Jul 2024: 9 recorded stars at bucket end (+0; current week may be partial)</title></circle><circle cx="450" cy="89.385" r="6" fill="transparent"><title>Jul 2024–Aug 2024: 10 recorded stars at bucket end (+1; current week may be partial)</title></circle><circle cx="466.692" cy="76.923" r="6" fill="transparent"><title>Aug 2024–Sep 2024: 11 recorded stars at bucket end (+1; current week may be partial)</title></circle><circle cx="483.385" cy="76.923" r="6" fill="transparent"><title>Sep 2024–Oct 2024: 11 recorded stars at bucket end (+0; current week may be partial)</title></circle><circle cx="500.077" cy="76.923" r="6" fill="transparent"><title>Oct 2024–Nov 2024: 11 recorded stars at bucket end (+0; current week may be partial)</title></circle><circle cx="516.769" cy="76.923" r="6" fill="transparent"><title>Nov 2024–Dec 2024: 11 recorded stars at bucket end (+0; current week may be partial)</title></circle><circle cx="533.462" cy="76.923" r="6" fill="transparent"><title>Dec 2024–Jan 2025: 11 recorded stars at bucket end (+0; current week may be partial)</title></circle><circle cx="550.154" cy="76.923" r="6" fill="transparent"><title>Jan 2025–Feb 2025: 11 recorded stars at bucket end (+0; current week may be partial)</title></circle><circle cx="566.846" cy="76.923" r="6" fill="transparent"><title>Feb 2025–Mar 2025: 11 recorded stars at bucket end (+0; current week may be partial)</title></circle><circle cx="583.538" cy="64.462" r="6" fill="transparent"><title>Mar 2025–Apr 2025: 12 recorded stars at bucket end (+1; current week may be partial)</title></circle><circle cx="600.231" cy="64.462" r="6" fill="transparent"><title>Apr 2025–May 2025: 12 recorded stars at bucket end (+0; current week may be partial)</title></circle><circle cx="616.923" cy="64.462" r="6" fill="transparent"><title>May 2025–Jun 2025: 12 recorded stars at bucket end (+0; current week may be partial)</title></circle><circle cx="633.615" cy="64.462" r="6" fill="transparent"><title>Jun 2025–Jul 2025: 12 recorded stars at bucket end (+0; current week may be partial)</title></circle><circle cx="650.308" cy="64.462" r="6" fill="transparent"><title>Jul 2025–Aug 2025: 12 recorded stars at bucket end (+0; current week may be partial)</title></circle><circle cx="667" cy="64.462" r="6" fill="transparent"><title>Aug 2025–Sep 2025: 12 recorded stars at bucket end (+0; current week may be partial)</title></circle><circle cx="683.692" cy="64.462" r="6" fill="transparent"><title>Sep 2025–Oct 2025: 12 recorded stars at bucket end (+0; current week may be partial)</title></circle><circle cx="700.385" cy="64.462" r="6" fill="transparent"><title>Oct 2025–Nov 2025: 12 recorded stars at bucket end (+0; current week may be partial)</title></circle><circle cx="717.077" cy="64.462" r="6" fill="transparent"><title>Nov 2025–Dec 2025: 12 recorded stars at bucket end (+0; current week may be partial)</title></circle><circle cx="733.769" cy="64.462" r="6" fill="transparent"><title>Dec 2025–Jan 2026: 12 recorded stars at bucket end (+0; current week may be partial)</title></circle><circle cx="750.462" cy="64.462" r="6" fill="transparent"><title>Jan 2026–Feb 2026: 12 recorded stars at bucket end (+0; current week may be partial)</title></circle><circle cx="767.154" cy="64.462" r="6" fill="transparent"><title>Feb 2026–Mar 2026: 12 recorded stars at bucket end (+0; current week may be partial)</title></circle><circle cx="783.846" cy="64.462" r="6" fill="transparent"><title>Mar 2026–Apr 2026: 12 recorded stars at bucket end (+0; current week may be partial)</title></circle><circle cx="800.538" cy="64.462" r="6" fill="transparent"><title>Apr 2026–May 2026: 12 recorded stars at bucket end (+0; current week may be partial)</title></circle><circle cx="817.231" cy="52" r="6" fill="transparent"><title>May 2026–Jun 2026: 13 recorded stars at bucket end (+1; current week may be partial)</title></circle><circle cx="833.923" cy="52" r="6" fill="transparent"><title>Jun 2026–Jul 2026: 13 recorded stars at bucket end (+0; current week may be partial)</title></circle><circle cx="850.615" cy="52" r="6" fill="transparent"><title>Jul 2026–Aug 2026: 13 recorded stars at bucket end (+0; current week may be partial)</title></circle><circle cx="867.308" cy="52" r="6" fill="transparent"><title>Aug 2026–Aug 2026: 13 recorded stars at bucket end (+0; current week may be partial)</title></circle><circle cx="884" cy="52" r="6" fill="transparent"><title>Aug 2026–Sep 2026: 13 recorded stars at bucket end (+0; current week may be partial)</title></circle><g class="sc-dates"><text x="40.8" y="230" class="sc-m" font-size="10" text-anchor="middle" textLength="49.6" lengthAdjust="spacingAndGlyphs">Jul 2022</text><text x="216.30769230668693" y="230" class="sc-m" font-size="10" text-anchor="middle" textLength="49.6" lengthAdjust="spacingAndGlyphs">Jul 2023</text><text x="416.61538461337386" y="230" class="sc-m" font-size="10" text-anchor="middle" textLength="49.6" lengthAdjust="spacingAndGlyphs">Jun 2024</text><text x="616.9230769200608" y="230" class="sc-m" font-size="10" text-anchor="middle" textLength="49.6" lengthAdjust="spacingAndGlyphs">Jun 2025</text><text x="817.2307692332827" y="230" class="sc-m" font-size="10" text-anchor="middle" textLength="49.6" lengthAdjust="spacingAndGlyphs">Jun 2026</text></g><text x="884" y="246" text-anchor="end" class="sc-m" font-size="9" opacity="0.8">★ Star Chart</text></svg>